<svg id="logo" xmlns="http://www.w3.org/2000/svg" width="836.333" height="639.581" viewBox="0 0 836.333 639.581">
  <path id="Path_1" data-name="Path 1" d="M199.857,244.4c11.566-1.828,22.969-13.692,69.746-19.382,9.374-1.141,18.857-14.795,18.923-27.137-20.612,2.5-24.81,3.31-33,3.31-19.517,0-35.493-8.7-35.493-14.632s20.932-20.155,36.721-20.155c7.514,0,10.838,2.042,13.622,2.042,2.634,0,5.852-.861,6.3-2.023,2.365-6.1,5.469-12.845,5.469-18.952,0-7.723-18.966-11.031-19.145-11.031-29.837,0-57.232,32.167-57.232,53.911,0,8.5,3.843,16.525,12.872,23.52-7.59,9.725-18.787,16.258-18.787,30.4v.122Zm587.065-49.854c-15.653,0-43.781,12.082-43.781,24.571,0,1.431,1.3,4.839,11.289,4.839,3.913,0,7.856-.394,11.759-.394,20.9,0,26.8,17.937,26.8,24.058a16.031,16.031,0,0,1-.72,4.812h-.005c-.364,0-.777.084-1.141.084-3.4,0-28.555-24.886-67.3-24.886s-50.983,20.544-70.015,20.544c-4.244,0-26.553-2.485-26.553-17.2,0-12.014,25.024-41.519,46.193-41.519,7.1,0,11.506,2.346,12.742,2.346,2.558,0,8.649-2.93,8.649-10.6,0-13.749-26.48-20.956-40.259-20.956-30.738,0-39.966,18.871-41.4,21.578-11.267,21.272-19.284,41.1-19.284,65.2,0,11.846,2.675,22.559,14.447,31.243-11.5,7.723-64.007,23.012-70.959,23.012-10.99,0-14.146-9.114-14.146-13.836,0-24.4,87.028-109.492,87.028-193.307C610.262,3.2,487.749,0,451.045,0c-.182,0-145.362,2.246-106.233,28.289,67.845,45.156,196.927,5.936,196.927,123.216,0,71.823-48.9,151.733-48.9,160.13,0,7.789,37.009,26.532,63.209,26.532,59.41,0,113.242-79.142,162.354-79.142,19.167,0,81.55,28.433,99.08,28.433,11.395,0,18.852-7.96,18.852-20.772,0-15.11-21.978-72.13-49.406-72.13ZM367.658,104.88c-6.68,0-14.648-.595-14.648,5.078s18.925,21.288,28.715,27.5c35.284,22.407,86.642,29.771,86.642,107.061,0,25.98-9.524,58.913-13.635,61.267-11.639-8.641-53.066-49.085-165.629-49.085-155.418,0-195.124,48.056-230.085,48.056-11.71,0-11.579-13.285-11.579-17.138,0-.31-2.352-11.5,28.471-71.283q-.794-1.181-1.586-2.365C23.507,223.879,0,277.369,0,310.34c0,23.43,8.6,51.554,47.716,51.554,62.3,0,117.565-72.062,246.577-72.062,87.965,0,150.712,37.65,163.782,37.65s55.961-81.806,55.961-126.8c0-93.727-134.646-95.8-146.378-95.8Z" transform="translate(0 0)" fill="#fff"/>
  <g id="Group_1" data-name="Group 1" transform="translate(25.407 291.588)">
    <path id="Path_2" data-name="Path 2" d="M181.753,1537.641a25.812,25.812,0,1,0-51.624,0v60.231a17.209,17.209,0,0,1-34.418,0v-60.231a59.905,59.905,0,0,1,6.183-26.887,19.5,19.5,0,0,1,11.025-35.493,19.621,19.621,0,0,1,16.134,8.6,59.966,59.966,0,0,1,69.908,11.563,60.273,60.273,0,0,1,103.251,42.212v60.23a17.209,17.209,0,0,1-34.418,0v-60.23a25.812,25.812,0,1,0-51.624,0v60.23a17.209,17.209,0,0,1-34.418,0v-60.23Z" transform="translate(-93.56 -1366.222)" fill="#fff"/>
    <path id="Path_3" data-name="Path 3" d="M970.3,1483.18a68.965,68.965,0,0,1,68.833,68.833,70.423,70.423,0,0,1-9.141,34.147,18.993,18.993,0,0,1,11.292,17.478A19.279,19.279,0,0,1,1021.927,1623a19.674,19.674,0,0,1-17.747-11.291,65.894,65.894,0,0,1-33.878,9.141,68.833,68.833,0,0,1,0-137.666Zm0,103.249a34.415,34.415,0,1,0-34.416-34.416A34.31,34.31,0,0,0,970.3,1586.429Z" transform="translate(-682.071 -1371.992)" fill="#fff"/>
    <path id="Path_4" data-name="Path 4" d="M1482.417,1459.683a17.209,17.209,0,1,1,0-34.417h51.624a17.209,17.209,0,1,0,0-34.418h-68.833a17.209,17.209,0,0,1,0-34.418h68.833a51.637,51.637,0,0,1,51.624,51.624,50.773,50.773,0,0,1-13.175,34.415,50.785,50.785,0,0,1,13.175,34.415,51.638,51.638,0,0,1-51.624,51.625h-68.833a17.209,17.209,0,0,1,0-34.418h68.833a17.209,17.209,0,1,0,0-34.418h-51.624Z" transform="translate(-1080.184 -1279.662)" fill="#fff"/>
    <path id="Path_5" data-name="Path 5" d="M2063.371,1483.18a68.965,68.965,0,0,1,68.833,68.833,70.421,70.421,0,0,1-9.142,34.147,19,19,0,0,1,11.3,17.478A19.279,19.279,0,0,1,2115,1623a19.672,19.672,0,0,1-17.747-11.291,65.893,65.893,0,0,1-33.877,9.141,68.833,68.833,0,1,1,0-137.666Zm0,103.249a34.415,34.415,0,1,0-34.416-34.416A34.311,34.311,0,0,0,2063.371,1586.429Z" transform="translate(-1478.303 -1371.992)" fill="#fff"/>
    <path id="Path_6" data-name="Path 6" d="M2665.775,1253.762l39.526,39.527a16.476,16.476,0,0,1,5.108,12.1,17.331,17.331,0,0,1-17.208,17.21,16.483,16.483,0,0,1-12.1-5.108l-39.527-39.526-39.525,39.526a16.483,16.483,0,0,1-12.1,5.108,17.33,17.33,0,0,1-17.21-17.21V1090.949a17.209,17.209,0,1,1,34.417,0v173.03l73.944-73.941a17.1,17.1,0,0,1,12.1-5.109,17.33,17.33,0,0,1,17.208,17.209,17.1,17.1,0,0,1-5.108,12.1Z" transform="translate(-1899.486 -1073.74)" fill="#fff"/>
  </g>
  <g id="Group_2" data-name="Group 2" transform="translate(91.756 563.122)">
    <path id="Path_7" data-name="Path 7" d="M412.57,2158.248H337.88v-11.282h8.253V2104.02h11.789l-1.094,27.533c7.5-7.916,15.24-11.621,23.577-11.621,13.893,0,21.978,10.021,22.988,27.03h9.179v11.282ZM391.1,2146.966v-1.18c0-9.264-4.209-15.575-11.7-15.575-8.674,0-16.335,5.642-22.819,16.758H391.1Z" transform="translate(-337.88 -2095.767)" fill="#fff"/>
    <path id="Path_8" data-name="Path 8" d="M610.962,2215.364H600.52V2205.6h10.442Zm29.388-13.978H602.459V2190.1h7.748c3.957,0,5.9-2.693,5.9-8.083V2163.24h11.873V2181.6a25.053,25.053,0,0,1-1.346,8.505h13.725v11.284Zm-13.556,13.978H616.352V2205.6h10.442Z" transform="translate(-529.197 -2138.905)" fill="#fff"/>
    <path id="Path_9" data-name="Path 9" d="M827.092,2201.386H740.36V2190.1h8.926c3.872,0,5.977-2.1,5.977-8V2163.24h11.872V2181.6a24.688,24.688,0,0,1-1.431,8.505h7.5c3.957,0,5.979-2.525,5.979-7.579V2163.24h11.789V2181.6a24.7,24.7,0,0,1-1.431,8.505h7.5c3.957,0,5.98-2.525,5.98-7.579V2163.24h11.873v18.272a23.6,23.6,0,0,1-1.516,8.591h13.725v11.284Z" transform="translate(-631.061 -2138.905)" fill="#fff"/>
    <path id="Path_10" data-name="Path 10" d="M1104.528,2136.112h-6.821c-8.168,0-15.156-1.01-21.052-3.114-5.9,2.1-12.882,3.114-21.052,3.114h-7.663v-11.284h7.663c3.7,0,5.979-.251,6.906-.671a20.533,20.533,0,0,1-5.475-13.81,21.167,21.167,0,0,1,1.01-6.4,18.982,18.982,0,0,1,18.61-13.305c8.842,0,16,5.135,18.61,13.305a21.14,21.14,0,0,1,1.011,6.4,20.519,20.519,0,0,1-5.476,13.81c1.011.419,3.284.671,6.906.671h6.821Zm-30.567-52.8H1063.52v-9.684h10.442Zm6.822,35.871a11.216,11.216,0,0,0,4.882-9.684c0-5.3-3.367-9.684-9.011-9.684a8.686,8.686,0,0,0-6.738,2.947,10.77,10.77,0,0,0-2.189,6.737,11.219,11.219,0,0,0,4.883,9.684,26.548,26.548,0,0,0,4.041,2.525,32.03,32.03,0,0,0,4.125-2.525Zm9.094-35.871h-10.442v-9.684h10.442Z" transform="translate(-855.114 -2073.63)" fill="#fff"/>
    <path id="Path_11" data-name="Path 11" d="M1250.942,2113.7H1240.5v-9.684h10.442Zm29.136,44.543H1242.1v-11.282h7.748c3.956,0,5.977-2.7,5.977-8.085V2120.1H1267.7v18.358a25.046,25.046,0,0,1-1.431,8.507h13.809v11.283Zm-13.3-44.543h-10.44v-9.684h10.44Z" transform="translate(-995.382 -2095.767)" fill="#fff"/>
    <path id="Path_12" data-name="Path 12" d="M1399.658,2142a16.865,16.865,0,0,1-3.7,11.115c-2.779,3.451-6.654,5.134-11.62,5.134H1373.22v-11.282h8.674c3.956,0,5.977-2.778,5.977-8.254V2104.02h11.788v37.974Z" transform="translate(-1092.06 -2095.767)" fill="#fff"/>
    <path id="Path_13" data-name="Path 13" d="M1513.989,2158.023H1502.2V2103.71h11.789Z" transform="translate(-1186.014 -2095.543)" fill="#fff"/>
    <path id="Path_14" data-name="Path 14" d="M1705.944,2161.3c0,8.757-5.135,13.892-14.23,13.892H1661.23c-18.609,0-27.87-7.831-27.87-23.575v-14.653h11.621v14.653c0,4.966,1.6,8.422,4.713,10.188,2.442,1.432,6.315,2.1,11.789,2.1h21.725c3.367,0,5.641-.251,6.906-.842,2.778-1.177,4.209-3.787,4.209-7.748v-18.273h11.621v24.25Zm-38.4-24.251h-10.525v-9.767h10.525Zm15.913,0h-10.526v-9.767h10.526Z" transform="translate(-1281.555 -2112.711)" fill="#fff"/>
    <path id="Path_15" data-name="Path 15" d="M1957.614,2158.023H1946.5c-9.01,0-14.23-5.219-14.23-13.894V2103.71h11.789v34.272c0,5.724,1.431,8.755,10.1,8.755h3.452Z" transform="translate(-1499.292 -2095.543)" fill="#fff"/>
    <path id="Path_16" data-name="Path 16" d="M2066.2,2208.632c0,11.282-7.579,19.2-19.368,19.2-7.158,0-12.546-2.441-16-7.241h-15.157V2209.3h11.705c0-12.042,6.906-19.7,19.031-19.7s19.788,7.494,19.788,19.032Zm-11.7.419c0-6.652-2.525-10.02-7.5-10.02h-.841c-4.294,0-7.243,3.957-7.243,9.515s2.862,9.685,7.916,9.685C2051.464,2218.232,2054.5,2214.526,2054.5,2209.052Z" transform="translate(-1560.051 -2158.108)" fill="#fff"/>
    <path id="Path_17" data-name="Path 17" d="M2285.425,2201.394H2230.86v-11.282h30.567c0-11.79-6.4-17.01-21.388-17.01v-9.852c7.41,0,12.63.5,15.745,1.6,11.619,4.124,17.428,12.463,17.428,25.177h12.211v11.368Z" transform="translate(-1716.797 -2138.912)" fill="#fff"/>
    <path id="Path_18" data-name="Path 18" d="M2490.571,2158.248H2421.86v-11.282h47.827a17.852,17.852,0,0,0-4.8-11.453,16.794,16.794,0,0,0-12.967-5.475,20.422,20.422,0,0,0-14.063,6.062c-1.178-1.6-3.114-4.206-5.9-8a27.659,27.659,0,0,1,20.8-8.927,30.741,30.741,0,0,1,13.137,2.7c9.01,4.294,14.313,12.628,15.745,25.092h8.927v11.282Zm-32.757-44.543h-10.44v-9.684h10.44Z" transform="translate(-1855.927 -2095.767)" fill="#fff"/>
    <path id="Path_19" data-name="Path 19" d="M2687.679,2142a16.863,16.863,0,0,1-3.705,11.115c-2.776,3.451-6.652,5.134-11.619,5.134H2661.24v-11.282h8.672c3.956,0,5.978-2.778,5.978-8.254V2104.02h11.788v37.974Z" transform="translate(-2030.301 -2095.767)" fill="#fff"/>
  </g>
</svg>
